<svg width="29" height="28" viewBox="0 0 29 28" fill="none" xmlns="http://www.w3.org/2000/svg">
<circle cx="14.6001" cy="14" r="14" fill="#4E6297"/>
<path d="M20.9 9.67374C20.9 8.62555 19.9751 7.70068 18.9269 7.70068H10.9731C9.92487 7.70068 9 8.62555 9 9.67374V17.6276C9 18.6758 9.92487 19.6007 10.9731 19.6007H14.9808V15.0996H13.501V13.1266H14.9808V12.325C14.9808 10.9686 15.9674 9.79705 17.2005 9.79705H18.8036V11.7701H17.2005C17.0155 11.7701 16.8306 11.9551 16.8306 12.325V13.1266H18.8036V15.0996H16.8306V19.6007H18.9269C19.9751 19.6007 20.9 18.6758 20.9 17.6276V9.67374Z" fill="white"/>
</svg>
