<svg width="133" height="23" viewBox="0 0 133 23" fill="none" xmlns="http://www.w3.org/2000/svg">
<path d="M11.5709 22.8368C14.9563 22.8368 17.8758 21.6565 19.8636 19.4203L17.8447 17.4636C16.1676 19.2339 14.1177 20.0725 11.7262 20.0725C6.81887 20.0725 3.18498 16.5318 3.18498 11.7177C3.18498 6.90357 6.81887 3.36287 11.7262 3.36287C14.1177 3.36287 16.1676 4.1704 17.8447 5.94075L19.8636 3.98404C17.8758 1.74781 14.9563 0.598633 11.6019 0.598633C4.9864 0.598633 0.0791016 5.28852 0.0791016 11.7177C0.0791016 18.1469 4.9864 22.8368 11.5709 22.8368ZM35.7053 6.1271V14.6372C35.7053 18.1779 33.7175 20.1036 30.6116 20.1036C27.7853 20.1036 26.1702 18.4885 26.1702 15.2584V6.1271H23.1886V15.6C23.1886 20.4452 26.0149 22.7746 30.27 22.7746C32.5994 22.7746 34.6493 21.8118 35.8606 20.1036V22.5883H38.6869V6.1271H35.7053ZM47.2206 8.89134V6.1271H44.3632V22.5883H47.3448V14.3888C47.3448 10.7859 49.3326 8.82922 52.5317 8.82922C52.7491 8.82922 52.9665 8.82922 53.215 8.86028V5.97181C50.3265 5.97181 48.2766 6.96569 47.2206 8.89134ZM61.7321 22.7746C66.1114 22.7746 68.8446 20.88 68.8446 17.8984C68.8446 11.5003 58.4088 14.6683 58.4088 10.7859C58.4088 9.48146 59.6822 8.51863 62.2912 8.51863C63.9062 8.51863 65.5524 8.86028 67.0432 9.8231L68.3166 7.46263C66.8879 6.53087 64.4653 5.97181 62.3223 5.97181C58.0983 5.97181 55.4583 7.95957 55.4583 10.9102C55.4583 17.4636 65.863 14.2645 65.863 17.9605C65.863 19.3582 64.7138 20.1967 61.9495 20.1967C59.8065 20.1967 57.5702 19.4824 56.1726 18.4885L54.9303 20.849C56.2968 21.936 58.999 22.7746 61.7321 22.7746ZM78.5652 5.97181C75.9252 5.97181 73.4715 6.71722 71.7633 8.08381L73.0056 10.32C74.2791 9.23299 76.2668 8.54969 78.2235 8.54969C81.1741 8.54969 82.6339 10.0095 82.6339 12.5252V13.1153H77.9129C73.0056 13.1153 71.2974 15.2895 71.2974 17.9295C71.2974 20.7869 73.6579 22.7746 77.3849 22.7746C79.9628 22.7746 81.7953 21.905 82.7892 20.4142V22.5883H85.6155V12.6495C85.6155 8.14593 83.0687 5.97181 78.5652 5.97181ZM77.8819 20.4763C75.6146 20.4763 74.248 19.4513 74.248 17.8052C74.248 16.4076 75.0866 15.2584 78.0372 15.2584H82.6339V17.5567C81.8885 19.4513 80.1181 20.4763 77.8819 20.4763ZM99.4572 19.4824C98.836 19.9793 97.9974 20.2589 97.1278 20.2589C95.4816 20.2589 94.5499 19.265 94.5499 17.4946V8.58075H99.2708V6.1271H94.5499V2.52428H91.5682V6.1271H88.7729V8.58075H91.5682V17.6189C91.5682 20.9422 93.4628 22.7746 96.7861 22.7746C98.1216 22.7746 99.4882 22.4019 100.389 21.6255L99.4572 19.4824ZM110.498 22.7746C115.436 22.7746 119.039 19.265 119.039 14.3577C119.039 9.4504 115.436 5.97181 110.498 5.97181C105.56 5.97181 101.926 9.4504 101.926 14.3577C101.926 19.265 105.56 22.7746 110.498 22.7746ZM110.498 20.1657C107.33 20.1657 104.938 17.8673 104.938 14.3577C104.938 10.848 107.33 8.58075 110.498 8.58075C113.666 8.58075 116.026 10.848 116.026 14.3577C116.026 17.8673 113.666 20.1657 110.498 20.1657ZM126.02 8.89134V6.1271H123.163V22.5883H126.144V14.3888C126.144 10.7859 128.132 8.82922 131.331 8.82922C131.549 8.82922 131.766 8.82922 132.015 8.86028V5.97181C129.126 5.97181 127.076 6.96569 126.02 8.89134Z" fill="black"/>
</svg>
