<svg width="29" height="28" viewBox="0 0 29 28" fill="none" xmlns="http://www.w3.org/2000/svg">
<circle cx="14.6997" cy="14" r="14" fill="#F79A38"/>
<path d="M19.0664 15.9543C19.4337 15.587 19.4862 15.0623 19.1713 14.5375C18.909 14.1178 18.4367 13.9079 17.912 14.0128C17.7021 14.0653 17.4922 14.1702 17.2823 14.3277C15.6557 15.4296 13.4518 15.3771 11.8252 14.2752C11.7202 14.2227 11.6153 14.1702 11.5103 14.1178C10.9331 13.8554 10.3559 13.9603 10.0411 14.4851C9.67379 15.0098 9.72626 15.587 10.1985 16.0593C10.3035 16.1642 10.4084 16.2167 10.4609 16.3216L10.5133 16.3741C11.248 16.9513 12.14 17.3186 13.2944 17.476L12.6123 18.1582C12.0351 18.7354 11.4054 19.365 10.8282 19.9422C10.6708 20.0996 10.4609 20.362 10.4609 20.7293C10.4609 21.2016 10.7232 21.6738 11.1955 21.8837C11.3529 21.9887 11.5103 21.9887 11.6677 21.9887C11.9301 21.9887 12.2449 21.8837 12.4548 21.6214C13.2419 20.8343 13.8716 20.2046 14.5013 19.5749C14.5537 19.5224 14.5537 19.5224 14.5537 19.5224C14.5537 19.5224 14.6062 19.5224 14.6062 19.5749C15.026 20.0472 15.4983 20.467 15.918 20.9392C16.1279 21.1491 16.3378 21.359 16.5477 21.5689C16.8101 21.8312 17.02 21.9362 17.3348 21.9362C17.8071 21.9887 18.3318 21.6738 18.5417 21.2016C18.7516 20.7818 18.6466 20.2571 18.2793 19.9422C17.7546 19.4175 17.2299 18.8403 16.6527 18.3156L15.7606 17.4235C16.2329 17.3711 16.7576 17.2661 17.2299 17.0562C18.0169 16.7939 18.5941 16.4266 19.0664 15.9543Z" fill="white"/>
<path d="M14.5537 14.4851C16.8101 14.4851 18.6466 12.701 18.6466 10.4447C18.6466 9.34273 18.2268 8.29328 17.4397 7.50619C16.6527 6.7191 15.6557 6.29932 14.6062 6.29932C12.3499 6.29932 10.5658 8.13586 10.5133 10.3397C10.5133 11.4416 10.9331 12.4386 11.7202 13.2257C12.4548 14.0653 13.4518 14.4851 14.5537 14.4851ZM13.3993 9.23779C13.7142 8.92296 14.134 8.76553 14.5537 8.76553C15.4983 8.76553 16.1804 9.50015 16.1804 10.3922C16.1804 11.3367 15.4458 12.0188 14.5537 12.0188C13.6092 12.0188 12.9271 11.2842 12.9271 10.3922C12.9271 9.97241 13.0845 9.55263 13.3993 9.23779Z" fill="white"/>
<path d="M19.0664 15.9543C19.4337 15.587 19.4862 15.0623 19.1713 14.5375C18.909 14.1178 18.4367 13.9079 17.912 14.0128C17.7021 14.0653 17.4922 14.1702 17.2823 14.3277C15.6557 15.4296 13.4518 15.3771 11.8252 14.2752C11.7202 14.2227 11.6153 14.1702 11.5103 14.1178C10.9331 13.8554 10.3559 13.9603 10.0411 14.4851C9.67379 15.0098 9.72626 15.587 10.1985 16.0593C10.3035 16.1642 10.4084 16.2167 10.4609 16.3216L10.5133 16.3741C11.248 16.9513 12.14 17.3186 13.2944 17.476L12.6123 18.1582C12.0351 18.7354 11.4054 19.365 10.8282 19.9422C10.6708 20.0996 10.4609 20.362 10.4609 20.7293C10.4609 21.2016 10.7232 21.6738 11.1955 21.8837C11.3529 21.9887 11.5103 21.9887 11.6677 21.9887C11.9301 21.9887 12.2449 21.8837 12.4548 21.6214C13.2419 20.8343 13.8716 20.2046 14.5013 19.5749C14.5537 19.5224 14.5537 19.5224 14.5537 19.5224C14.5537 19.5224 14.6062 19.5224 14.6062 19.5749C15.026 20.0472 15.4983 20.467 15.918 20.9392C16.1279 21.1491 16.3378 21.359 16.5477 21.5689C16.8101 21.8312 17.02 21.9362 17.3348 21.9362C17.8071 21.9887 18.3318 21.6738 18.5417 21.2016C18.7516 20.7818 18.6466 20.2571 18.2793 19.9422C17.7546 19.4175 17.2299 18.8403 16.6527 18.3156L15.7606 17.4235C16.2329 17.3711 16.7576 17.2661 17.2299 17.0562C18.0169 16.7939 18.5941 16.4266 19.0664 15.9543Z" fill="white"/>
</svg>
