<svg width="29" height="28" viewBox="0 0 29 28" fill="none" xmlns="http://www.w3.org/2000/svg">
<circle cx="14.8" cy="14" r="14" fill="#00A9E7"/>
<path d="M22.023 14.747C22.0708 14.3652 22.1185 14.0311 22.1185 13.6493C22.1185 9.83114 19.0162 6.68113 15.1503 6.68113C14.7685 6.68113 14.4344 6.72886 14.0526 6.77659C13.4321 6.4425 12.7639 6.29932 12.0957 6.29932C9.70938 6.29932 7.80029 8.20841 7.80029 10.5948C7.80029 11.263 7.94347 11.9311 8.27757 12.5516C8.22984 12.9334 8.18211 13.2675 8.18211 13.6493C8.18211 17.4675 11.2844 20.6175 15.1503 20.6175C15.5321 20.6175 15.8662 20.5698 16.248 20.522C16.8685 20.8084 17.5367 20.9993 18.2048 20.9993C20.5912 20.9993 22.5003 19.0902 22.5003 16.7039C22.5003 16.0357 22.3094 15.3675 22.023 14.747ZM18.0617 16.1789C17.9185 16.4652 17.7276 16.7039 17.4412 16.8948C17.1548 17.0857 16.8685 17.2289 16.4867 17.3243C16.1048 17.4198 15.6753 17.4675 15.198 17.4675C14.1957 17.4675 13.3844 17.2289 12.8117 16.7993C12.4776 16.513 12.1912 16.1789 12.048 15.7493C11.8571 15.3675 12.1912 14.8902 12.6685 14.8902H12.8117C13.098 14.8902 13.3844 15.0811 13.4798 15.3198C13.5753 15.5584 13.7185 15.7493 13.9094 15.8925C14.1957 16.1311 14.6253 16.2266 15.1503 16.2266C15.6276 16.2266 16.0094 16.1311 16.2957 15.988C16.5821 15.8448 16.7253 15.5584 16.7253 15.272C16.7253 15.1289 16.6776 15.0334 16.6298 14.938C16.5821 14.8425 16.4389 14.747 16.3435 14.6993C16.2003 14.6039 16.0571 14.5561 15.8185 14.5084C15.6276 14.4607 15.3889 14.3652 15.1026 14.3175L14.8162 14.222C14.4821 14.1266 14.1003 14.0311 13.8139 13.9357C13.4798 13.8402 13.1935 13.697 12.9548 13.5539C12.7162 13.4107 12.5253 13.2198 12.3821 12.9334C12.2389 12.6948 12.1912 12.3607 12.1912 11.9789C12.1912 11.597 12.2867 11.263 12.4298 10.9766C12.573 10.6902 12.8117 10.4516 13.0503 10.3084C13.3367 10.1175 13.623 9.97432 14.0048 9.92659C14.3389 9.83114 14.7207 9.78341 15.1503 9.78341C15.6276 9.78341 16.0094 9.83114 16.3912 9.92659C16.773 10.022 17.0594 10.1652 17.3457 10.4039C17.6321 10.5948 17.823 10.8334 17.9662 11.1675C18.2048 11.597 17.8707 12.1698 17.3457 12.1698H17.2026C16.9162 12.1698 16.6776 12.0266 16.5344 11.788C16.4389 11.6448 16.3435 11.5016 16.2003 11.3584C15.9617 11.1675 15.5798 11.072 15.1503 11.072C14.7207 11.072 14.3867 11.1675 14.148 11.3107C13.9094 11.4539 13.8139 11.6925 13.8139 11.9311C13.8139 12.0743 13.8617 12.1698 13.9094 12.2652C13.9571 12.3607 14.0526 12.4561 14.1957 12.5039C14.3389 12.5516 14.4821 12.647 14.673 12.6948C14.8639 12.7425 15.1026 12.7902 15.3889 12.8857C15.6753 12.9334 15.9139 13.0289 16.2003 13.0766C16.4389 13.1243 16.6776 13.2198 16.9162 13.2675C17.1548 13.363 17.3457 13.4584 17.5367 13.5539C17.7276 13.6493 17.8707 13.7925 18.0139 13.9357C18.1571 14.0789 18.2526 14.2698 18.3003 14.4607C18.3958 14.6516 18.3958 14.938 18.3958 15.2243C18.3003 15.5584 18.2048 15.8925 18.0617 16.1789Z" fill="white"/>
</svg>
