<svg width="28" height="28" viewBox="0 0 28 28" fill="none" xmlns="http://www.w3.org/2000/svg">
<circle cx="14" cy="14" r="14" fill="#2F89CE"/>
<path d="M6.54505 14.2627L9.76372 15.4629L11.0184 19.4999C11.073 19.7726 11.4003 19.8272 11.6185 19.6635L13.4188 18.1906C13.5825 18.0269 13.8552 18.0269 14.0734 18.1906L17.2921 20.5364C17.5103 20.7 17.8376 20.5909 17.8922 20.3182L20.2925 8.86194C20.3471 8.58917 20.0743 8.31641 19.8016 8.42551L6.54505 13.5535C6.21773 13.6626 6.21773 14.1536 6.54505 14.2627ZM10.8548 14.8628L17.183 10.9895C17.2921 10.935 17.4012 11.0986 17.2921 11.1532L12.1095 16.0084C11.9459 16.1721 11.7822 16.3903 11.7822 16.6631L11.6185 17.9724C11.6185 18.136 11.3458 18.1906 11.2912 17.9724L10.6366 15.572C10.4729 15.2993 10.582 14.9719 10.8548 14.8628Z" fill="white"/>
</svg>
