<svg width="29" height="28" viewBox="0 0 29 28" fill="none" xmlns="http://www.w3.org/2000/svg">
<circle cx="14.8997" cy="14" r="14" fill="#55ACE3"/>
<path d="M22.3203 10.4291C21.8303 10.6391 21.2703 10.7791 20.7103 10.8491C21.2703 10.4991 21.7603 9.93912 21.9703 9.30912C21.4103 9.65912 20.8503 9.86912 20.1503 10.0091C19.6603 9.44912 18.8903 9.09912 18.1203 9.09912C16.5803 9.09912 15.3203 10.3591 15.3203 11.8991C15.3203 12.1091 15.3203 12.3191 15.3903 12.5291C13.0803 12.3891 10.9803 11.2691 9.58034 9.58912C9.37034 10.0091 9.23034 10.4991 9.23034 10.9891C9.23034 11.9691 9.72034 12.8091 10.4903 13.2991C10.0003 13.2991 9.58034 13.1591 9.23034 12.9491C9.23034 14.2791 10.2103 15.4691 11.4703 15.6791C11.2603 15.7491 10.9803 15.7491 10.7003 15.7491C10.4903 15.7491 10.3503 15.7491 10.1403 15.6791C10.4903 16.7991 11.5403 17.6391 12.8003 17.6391C11.8203 18.4091 10.6303 18.8291 9.30034 18.8291C9.09034 18.8291 8.88034 18.8291 8.60034 18.7591C9.86034 19.5291 11.3303 20.0191 12.9403 20.0191C18.1203 20.0191 20.9203 15.7491 20.9203 12.0391V11.6891C21.4803 11.4791 21.9703 10.9891 22.3203 10.4291Z" fill="white"/>
</svg>
