<svg width="29" height="28" viewBox="0 0 29 28" fill="none" xmlns="http://www.w3.org/2000/svg">
<circle cx="14.8003" cy="14" r="14" fill="#7C509A"/>
<path d="M19.178 7.38214C16.51 6.87262 13.7393 6.87262 11.0712 7.38214C9.89113 7.6369 8.40317 9.06355 8.14663 10.1845C7.68485 12.3754 7.68485 14.6173 8.14663 16.8082C8.45448 17.9292 9.94244 19.3558 11.0712 19.6106C11.1225 19.6106 11.1739 19.6616 11.1739 19.7125V22.9225C11.1739 23.0753 11.3791 23.1772 11.4817 23.0244L13.021 21.4449C13.021 21.4449 14.2524 20.1711 14.4576 19.9673C14.4576 19.9673 14.5089 19.9163 14.5602 19.9163C16.0995 19.9673 17.6901 19.8144 19.2294 19.5597C20.4095 19.3049 21.8974 17.8782 22.154 16.7573C22.6157 14.5664 22.6157 12.3245 22.154 10.1335C21.8461 9.06355 20.3582 7.6369 19.178 7.38214ZM19.2294 16.9611C18.9728 17.4706 18.665 17.8782 18.1519 18.133C17.9979 18.1839 17.844 18.2349 17.6901 18.2859C17.4848 18.2349 17.3309 18.1839 17.177 18.133C15.5351 17.4706 13.9958 16.5535 12.7644 15.2287C12.0974 14.4645 11.533 13.5983 11.0712 12.6811C10.866 12.2226 10.6608 11.815 10.5068 11.3564C10.3529 10.9488 10.6095 10.5412 10.866 10.2354C11.1225 9.92974 11.4304 9.72593 11.7896 9.57307C12.0461 9.42022 12.3027 9.52212 12.5079 9.72593C12.9184 10.2354 13.3288 10.745 13.6367 11.3054C13.8419 11.6621 13.7906 12.0697 13.4314 12.3245C13.3288 12.3754 13.2775 12.4264 13.1749 12.5283C13.1236 12.5792 13.021 12.6302 12.9697 12.7321C12.867 12.8849 12.867 13.0378 12.9184 13.1907C13.3288 14.3626 14.0985 15.2797 15.2786 15.7892C15.4838 15.8911 15.6377 15.9421 15.8943 15.9421C16.2534 15.8911 16.4074 15.4835 16.6639 15.2797C16.9205 15.0759 17.2283 15.0759 17.5362 15.2287C17.7927 15.3816 18.0492 15.5854 18.3571 15.7892C18.6136 15.993 18.8702 16.1459 19.1267 16.3497C19.2807 16.4516 19.332 16.7063 19.2294 16.9611ZM17.0744 13.1397C16.9718 13.1397 17.0231 13.1397 17.0744 13.1397C16.8691 13.1397 16.8178 13.0378 16.7665 12.8849C16.7665 12.783 16.7665 12.6302 16.7152 12.5283C16.6639 12.3245 16.5613 12.1207 16.3561 11.9678C16.2534 11.9169 16.1508 11.8659 16.0482 11.815C15.8943 11.764 15.7917 11.764 15.6377 11.764C15.4838 11.7131 15.4325 11.6111 15.4325 11.4583C15.4325 11.3564 15.5864 11.2545 15.689 11.2545C16.51 11.3054 17.1257 11.764 17.2283 12.7321C17.2283 12.783 17.2283 12.8849 17.2283 12.9359C17.2283 13.0378 17.177 13.1397 17.0744 13.1397ZM16.5613 10.8978C16.3047 10.7959 16.0482 10.694 15.7403 10.6431C15.6377 10.6431 15.4838 10.5921 15.3812 10.5921C15.2273 10.5921 15.1246 10.4902 15.1759 10.3374C15.1759 10.1845 15.2786 10.0826 15.4325 10.1335C15.9456 10.1845 16.4074 10.2864 16.8691 10.4902C17.7927 10.9488 18.3058 11.7131 18.4597 12.7321C18.4597 12.783 18.4597 12.834 18.4597 12.8849C18.4597 12.9869 18.4597 13.0888 18.4597 13.2416C18.4597 13.2926 18.4597 13.3435 18.4597 13.3945C18.4084 13.5983 18.0492 13.6492 17.9979 13.3945C17.9979 13.3435 17.9466 13.2416 17.9466 13.1907C17.9466 12.7321 17.844 12.2735 17.6388 11.8659C17.3309 11.4073 16.9718 11.1016 16.5613 10.8978ZM19.332 13.9549C19.178 13.9549 19.0754 13.8021 19.0754 13.6492C19.0754 13.3435 19.0241 13.0378 18.9728 12.7321C18.7676 11.1016 17.4335 9.77688 15.843 9.52212C15.5864 9.47117 15.3299 9.47117 15.1246 9.42022C14.9707 9.42022 14.7655 9.42022 14.7142 9.21641C14.6629 9.06355 14.8168 8.9107 14.9707 8.9107C15.022 8.9107 15.0733 8.9107 15.0733 8.9107C17.177 8.96165 15.176 8.9107 15.0733 8.9107C17.2283 8.96165 19.0241 10.3883 19.3833 12.5283C19.4346 12.8849 19.4859 13.2416 19.4859 13.6492C19.5885 13.8021 19.4859 13.9549 19.332 13.9549Z" fill="white"/>
</svg>
