<svg width="28" height="28" viewBox="0 0 28 28" fill="none" xmlns="http://www.w3.org/2000/svg">
<circle cx="14" cy="14" r="14" fill="#7294C7"/>
<path d="M20.8642 17.581C20.8642 17.5229 20.8061 17.5229 20.8061 17.4647C20.5736 16.9998 20.0506 16.4187 19.3532 15.7794C19.0045 15.4888 18.8301 15.2563 18.7139 15.1401C18.5396 14.9076 18.5396 14.7333 18.5977 14.5008C18.6558 14.3265 18.8883 14.0359 19.2951 13.5128C19.5275 13.2223 19.6438 13.0479 19.8181 12.8736C20.6898 11.7113 21.0967 10.9557 20.9804 10.607L20.9223 10.5489C20.8642 10.4908 20.8061 10.4327 20.6898 10.4327C20.5736 10.3746 20.3993 10.3746 20.2249 10.4327H18.0165C17.9584 10.4327 17.9584 10.4327 17.8422 10.4327C17.7841 10.4327 17.7259 10.4327 17.7259 10.4327H17.6678H17.6097L17.5516 10.4908C17.4935 10.5489 17.4935 10.5489 17.4935 10.607C17.261 11.2463 16.9704 11.7694 16.6798 12.3505C16.5055 12.6411 16.3312 12.9317 16.1568 13.1642C15.9825 13.3966 15.8662 13.571 15.75 13.6872C15.6338 13.8034 15.5175 13.8615 15.4594 13.9778C15.4013 14.0359 15.2851 14.094 15.2851 14.0359C15.2269 14.0359 15.1688 14.0359 15.1688 13.9778C15.1107 13.9197 15.0526 13.8615 14.9945 13.8034C14.9364 13.7453 14.9364 13.6291 14.8782 13.5128C14.8782 13.3966 14.8782 13.2804 14.8782 13.2223C14.8782 13.1641 14.8782 12.9898 14.8782 12.8736C14.8782 12.6992 14.8782 12.583 14.8782 12.5249C14.8782 12.3505 14.8782 12.1181 14.8782 11.8856C14.8782 11.6531 14.8782 11.4788 14.8782 11.3626C14.8782 11.2463 14.8782 11.072 14.8782 10.9557C14.8782 10.7814 14.8782 10.6652 14.8782 10.607C14.8782 10.5489 14.8201 10.4327 14.8201 10.3746C14.762 10.3165 14.7039 10.2584 14.6458 10.2002C14.5877 10.1421 14.4714 10.1421 14.4133 10.084C14.1227 10.0259 13.7741 9.96777 13.3672 9.96777C12.4374 9.96777 11.7981 10.0259 11.5656 10.1421C11.4494 10.2002 11.3332 10.2584 11.2751 10.3746C11.1588 10.4908 11.1588 10.5489 11.2169 10.5489C11.5075 10.607 11.74 10.7233 11.8562 10.8976L11.9143 11.0139C11.9725 11.072 11.9724 11.1882 12.0306 11.3626C12.0887 11.5369 12.0887 11.7113 12.0887 11.9437C12.0887 12.2924 12.0887 12.6411 12.0887 12.8736C12.0887 13.1642 12.0306 13.3385 12.0306 13.5128C12.0306 13.6872 11.9725 13.8034 11.9143 13.8615C11.8562 13.9778 11.8562 14.0359 11.7981 14.0359C11.7981 14.0359 11.7981 14.094 11.74 14.094C11.6819 14.094 11.6238 14.1521 11.5075 14.1521C11.4494 14.1521 11.3332 14.094 11.2751 14.0359C11.1588 13.9778 11.0426 13.8615 10.9845 13.7453C10.8683 13.6291 10.752 13.4547 10.6358 13.2223C10.5196 12.9898 10.3452 12.7573 10.229 12.4086L10.1127 12.1762C10.0546 12.06 9.93839 11.8275 9.82216 11.5369C9.70593 11.2463 9.58969 11.0139 9.47346 10.7233C9.41535 10.6071 9.35724 10.5489 9.29912 10.4908H9.241C9.241 10.4908 9.18288 10.4327 9.12476 10.4327C9.06665 10.4327 9.00854 10.3746 8.95042 10.3746H6.85824C6.62578 10.3746 6.50955 10.4327 6.45143 10.4908L6.39331 10.5489C6.39331 10.5489 6.39331 10.607 6.39331 10.6652C6.39331 10.7233 6.39331 10.7814 6.45143 10.8976C6.74201 11.595 7.0907 12.2924 7.4394 12.9898C7.7881 13.6291 8.1368 14.2102 8.36926 14.6171C8.65984 15.0239 8.8923 15.4307 9.18288 15.7794C9.47346 16.1281 9.64781 16.3605 9.70592 16.4768C9.82215 16.593 9.88027 16.6511 9.93838 16.7092L10.1127 16.8836C10.229 16.9998 10.4033 17.1742 10.6358 17.3485C10.8682 17.5229 11.1588 17.6972 11.4494 17.8715C11.74 18.0459 12.0887 18.1621 12.4374 18.2784C12.8442 18.3946 13.1929 18.4527 13.5416 18.3946H14.4133C14.5877 18.3946 14.7039 18.3365 14.8201 18.2202L14.8782 18.1621C14.8782 18.104 14.9364 18.104 14.9364 18.0459C14.9364 17.9878 14.9364 17.9297 14.9364 17.8134C14.9364 17.581 14.9364 17.4066 14.9945 17.2323C15.0526 17.0579 15.0526 16.9417 15.1107 16.8255C15.1688 16.7092 15.2269 16.6511 15.2851 16.593C15.3432 16.5349 15.4013 16.4768 15.4013 16.4768H15.4594C15.5756 16.4187 15.75 16.4768 15.8662 16.593C16.0406 16.7092 16.2149 16.8836 16.3311 17.0579C16.4474 17.2323 16.6217 17.4066 16.8542 17.6391C17.0867 17.8716 17.261 18.0459 17.3772 18.104L17.5516 18.2202C17.6678 18.2784 17.7841 18.3365 17.9584 18.3946C18.1328 18.4527 18.249 18.4527 18.3652 18.4527L20.3412 18.3946C20.5155 18.3946 20.6899 18.3365 20.8061 18.2784C20.9223 18.2203 20.9804 18.1621 20.9804 18.0459C20.9804 17.9878 20.9804 17.8716 20.9804 17.8134C20.8642 17.6972 20.8642 17.6391 20.8642 17.581Z" fill="white"/>
</svg>
