<svg width="29" height="28" viewBox="0 0 29 28" fill="none" xmlns="http://www.w3.org/2000/svg">
<circle cx="14.8999" cy="14" r="14" fill="#48C95F"/>
<path d="M20.4487 8.44307C19.0658 7.06494 17.2219 6.29932 15.2755 6.29932C11.2292 6.29932 7.95112 9.56598 7.95112 13.5983C7.95112 14.8743 8.30966 16.1504 8.92429 17.2222L7.8999 20.9993L11.7926 19.9785C12.8682 20.5399 14.0462 20.8462 15.2755 20.8462C19.3219 20.8462 22.5999 17.5795 22.5999 13.5472C22.5487 11.6587 21.8316 9.82119 20.4487 8.44307ZM18.8097 16.2014C18.656 16.6097 17.9389 17.0181 17.5804 17.0691C17.2731 17.1202 16.8633 17.1202 16.4536 17.0181C16.1975 16.916 15.8389 16.8139 15.4292 16.6097C13.5853 15.8441 12.4072 14.0066 12.3048 13.8535C12.2023 13.7514 11.5365 12.8837 11.5365 11.9649C11.5365 11.0462 11.9975 10.6379 12.1511 10.4337C12.3048 10.2295 12.5097 10.2295 12.6633 10.2295C12.7658 10.2295 12.9194 10.2295 13.0219 10.2295C13.1243 10.2295 13.278 10.1785 13.4316 10.5358C13.5853 10.8931 13.9438 11.8118 13.995 11.8629C14.0462 11.9649 14.0462 12.067 13.995 12.1691C13.9438 12.2712 13.8926 12.3733 13.7901 12.4754C13.6877 12.5774 13.5853 12.7306 13.534 12.7816C13.4316 12.8837 13.3292 12.9858 13.4316 13.1389C13.534 13.3431 13.8926 13.9045 14.456 14.4149C15.1731 15.0274 15.7365 15.2316 15.9414 15.3337C16.1462 15.4358 16.2487 15.3847 16.3511 15.2826C16.4536 15.1806 16.8121 14.7722 16.9145 14.5681C17.017 14.3639 17.1706 14.4149 17.3243 14.466C17.478 14.517 18.3999 14.9764 18.5536 15.0785C18.7584 15.1806 18.8609 15.2316 18.9121 15.2826C18.9633 15.4358 18.9633 15.7931 18.8097 16.2014Z" fill="white"/>
</svg>
